<?xml version="1.0" standalone="no"?>
<!DOCTYPE svg PUBLIC "-//W3C//DTD SVG 20010904//EN"
 "http://www.w3.org/TR/2001/REC-SVG-20010904/DTD/svg10.dtd">
<svg version="1.0" xmlns="http://www.w3.org/2000/svg"
 width="512.000000pt" height="512.000000pt" viewBox="0 0 512.000000 512.000000"
 preserveAspectRatio="xMidYMid meet">
<metadata>
Created by potrace 1.14, written by Peter Selinger 2001-2017
</metadata>
<g transform="translate(0.000000,512.000000) scale(0.100000,-0.100000)"
fill="#000000" stroke="none">
<path d="M1725 5104 c-56 -31 -90 -74 -101 -127 -2 -12 -8 -44 -14 -72 -5 -27
-12 -63 -15 -80 -2 -16 -18 -111 -35 -210 -17 -99 -39 -227 -50 -285 -11 -58
-21 -116 -23 -129 -2 -15 -11 -25 -23 -26 -10 -2 -73 -12 -139 -24 -66 -12
-133 -24 -150 -27 -16 -3 -79 -14 -140 -25 -60 -10 -213 -37 -339 -60 -259
-45 -340 -73 -440 -149 -189 -145 -283 -391 -237 -621 6 -30 13 -70 16 -89 3
-19 8 -42 10 -50 2 -8 6 -37 10 -64 3 -27 8 -52 10 -56 2 -3 6 -26 10 -50 3
-25 10 -67 16 -95 5 -27 11 -63 13 -80 2 -16 11 -67 20 -111 8 -45 18 -103 22
-130 3 -27 8 -51 9 -54 2 -3 11 -50 20 -105 10 -55 19 -109 21 -120 2 -11 11
-60 20 -110 8 -49 17 -101 19 -115 3 -14 16 -88 30 -165 13 -77 29 -165 34
-195 6 -30 13 -68 15 -85 3 -16 8 -41 10 -55 3 -14 8 -41 10 -60 3 -19 8 -45
10 -56 2 -12 7 -37 10 -55 3 -19 8 -45 10 -59 5 -25 30 -168 61 -345 9 -49 18
-106 21 -125 3 -19 7 -42 9 -50 2 -8 6 -28 9 -45 29 -176 48 -272 63 -319 40
-125 152 -267 266 -334 100 -60 188 -85 307 -86 58 0 123 3 145 7 41 7 70 13
115 21 14 3 41 7 60 10 19 3 60 10 90 16 30 6 105 19 165 30 164 28 808 142
875 154 14 3 66 12 115 20 50 9 99 18 110 20 30 6 108 19 125 21 8 2 31 6 50
9 19 4 85 16 145 26 61 11 120 22 132 24 11 3 43 8 70 12 26 5 50 9 53 9 3 1
25 5 50 9 25 4 90 16 145 26 55 10 118 21 140 24 22 4 76 13 120 22 44 8 96
17 115 20 124 19 178 48 207 110 14 28 27 37 79 54 157 53 291 172 362 322 37
79 51 138 97 403 20 116 40 230 45 255 5 25 32 178 60 340 28 162 57 329 65
370 8 41 62 347 120 680 59 333 119 675 135 760 45 246 33 384 -47 528 -94
171 -277 299 -468 327 -37 5 -237 39 -295 50 -58 10 -598 105 -630 110 -19 3
-69 12 -110 20 -41 8 -91 17 -110 20 -19 3 -71 12 -115 20 -44 7 -93 16 -110
19 -16 2 -93 16 -170 30 -223 40 -316 57 -375 67 -30 5 -66 11 -80 14 -13 2
-40 7 -60 10 -20 3 -47 7 -60 10 -14 3 -50 9 -80 15 -30 5 -71 12 -90 16 -19
3 -44 8 -55 9 -11 2 -99 18 -195 35 -229 41 -277 44 -315 24z"/>
</g>
</svg>
